<?xml version="1.0" encoding="UTF-8"?>
<svg xmlns="http://www.w3.org/2000/svg" xmlns:xlink="http://www.w3.org/1999/xlink" id="Layer_1" x="0px" y="0px" viewBox="0 0 22 25" style="enable-background:new 0 0 22 25;" xml:space="preserve">
  <style type="text/css">	.st0{clip-path:url(#SVGID_2_);}	.st1{fill:#72BF40;}	.st2{fill:#FFFFFF;}	.st3{opacity:8.000000e-02;enable-background:new    ;}</style>
  <g>	<defs>		<rect id="SVGID_1_" x="0" width="22" height="25"></rect>	</defs>	<clipPath id="SVGID_2_">		<use xlink:href="#SVGID_1_" style="overflow:visible;"></use>	</clipPath>	<g class="st0">		<path class="st1" d="M22,16.5c0,0.8-0.5,1.8-1.2,2.3l-8.6,5.7c-0.7,0.4-1.8,0.4-2.4,0l-8.5-5.7C0.6,18.4,0,17.4,0,16.5V8.5   c0-0.8,0.6-1.8,1.2-2.3l8.5-5.7c0.7-0.4,1.8-0.4,2.5,0l8.6,5.7C21.5,6.6,22,7.6,22,8.4L22,16.5L22,16.5z"></path>		<path class="st2" d="M8.1,9.9h5.9V11H8.1V9.9z M7.3,11.8h7.3v1.1H7.3V11.8z M6.4,13.6h9.2v1.1H6.4V13.6z M11,5.7   c3.7,0,6.8,3.1,6.8,6.8c0,3.8-3,6.8-6.8,6.8c-3.7,0-6.8-3.1-6.8-6.8C4.2,8.8,7.3,5.7,11,5.7z M11,5.1c-4.1,0-7.3,3.3-7.3,7.4   c0,4.1,3.3,7.4,7.3,7.4c4.1,0,7.3-3.3,7.3-7.4C18.3,8.4,15.1,5.1,11,5.1z"></path>		<path class="st3" d="M20.8,6.2l-8.5-5.7c-0.3-0.2-0.8-0.3-1.2-0.3v24.8c0.4,0,0.9-0.1,1.2-0.3l8.6-5.7c0.7-0.4,1.2-1.5,1.2-2.3   V8.5C22,7.6,21.5,6.6,20.8,6.2z"></path>		<path class="st1" d="M11,0.8c0.3,0,0.6,0.1,0.8,0.2l8.6,5.7c0.5,0.3,0.9,1.1,0.9,1.7v8.1c0,0.6-0.4,1.4-0.9,1.7l-8.6,5.7   c-0.2,0.1-0.5,0.2-0.8,0.2s-0.6-0.1-0.8-0.2l-8.6-5.7c-0.5-0.3-0.9-1.1-0.9-1.7V8.5c0-0.6,0.4-1.4,0.9-1.7l8.6-5.7   C10.4,0.9,10.7,0.8,11,0.8z M11,0.1c-0.4,0-0.9,0.1-1.2,0.3L1.2,6.2C0.6,6.6,0,7.6,0,8.5v8.1c0,0.8,0.6,1.8,1.2,2.3l8.6,5.7   c0.3,0.2,0.8,0.3,1.2,0.3c0.5,0,0.9-0.1,1.2-0.3l8.6-5.7c0.7-0.4,1.2-1.5,1.2-2.3V8.5c0-0.8-0.5-1.8-1.2-2.3l-8.6-5.7   C11.9,0.2,11.4,0.1,11,0.1z"></path>	</g></g>
</svg>
