<?xml version="1.0" encoding="UTF-8"?>
<!-- Generator: Adobe Illustrator 26.3.1, SVG Export Plug-In . SVG Version: 6.00 Build 0)  -->
<svg xmlns="http://www.w3.org/2000/svg" xmlns:xlink="http://www.w3.org/1999/xlink" version="1.1" id="Layer_1" x="0px" y="0px" viewBox="0 0 63 122" style="enable-background:new 0 0 63 122;" xml:space="preserve">
<style type="text/css">
	.st0{fill:#FFC634;}
</style>
<g>
	<path class="st0" d="M40.1,13.2c0.3,2.2,1.1,4.7,1.9,6.4c0.3,0.8,0.8,1.7,1.1,2.2c0.3,0.6,0.3,0.8,0.3,0.8s0.8-0.6,1.7-1.7   c0.8-1.1,1.4-3.1,1.4-5.3c0-2.5-1.1-5-2.2-7c-0.3-0.6-0.6-0.8-0.8-1.4c-0.3-0.3-0.6-0.6-0.8-0.8c-0.6-0.6-0.8-0.8-0.8-0.8   s-0.6,0.8-1.1,1.9c0,0.8-0.3,1.7-0.6,2.5C40.1,11,40.1,12.1,40.1,13.2z"></path>
	<path class="st0" d="M49.6,30.2c-0.3,2.5-0.3,5.3,0.3,7.2c0,0.6,0.3,1.1,0.3,1.4c0,0.6,0,0.8,0.3,1.1c0,0.6,0.3,1.1,0.3,1.1   s0.8-0.3,1.9-1.4c0.6-0.6,1.1-1.1,1.7-1.9c0.6-0.8,1.1-1.9,1.4-3.3c0.6-2.5,0.3-5.6-0.6-7.8c-0.3-1.1-0.6-2.2-0.8-2.8   c-0.3-0.8-0.6-1.1-0.6-1.1s0,0-0.6,0.6c-0.3,0.3-0.8,0.8-1.4,1.4c-0.3,0.6-0.8,1.4-1.1,2.2C50.1,27.7,49.9,28.8,49.6,30.2z"></path>
	<path class="st0" d="M54.6,48.8c-1.1,2.5-1.7,5.6-2.2,7.8c0,0.6-0.3,1.1-0.3,1.7c0,0.6-0.3,0.8-0.3,1.4c0,0.8,0,1.1,0,1.1   s0.3,0,0.8,0s1.1-0.3,1.9-0.6c0.8-0.3,1.7-0.8,2.5-1.7c0.8-0.8,1.7-1.7,2.5-3.1c1.4-2.8,1.9-6.1,1.9-8.6c0-0.6,0-1.4,0-1.9   c0-0.6,0-1.1,0-1.4c0-0.8-0.3-1.4-0.3-1.4s-1.1,0.3-2.5,1.4c-0.6,0.6-1.4,1.1-2.2,2.2C55.7,46.6,55.1,47.7,54.6,48.8z"></path>
	<path class="st0" d="M53.5,68.5c-1.9,2.2-3.6,5-4.7,7.2c-0.3,0.3-0.3,0.6-0.6,0.8c-0.3,0.3-0.3,0.6-0.3,0.8   c-0.3,0.6-0.6,0.8-0.6,1.1c-0.3,0.8-0.6,1.1-0.6,1.1s0.3,0,0.8,0.3c0.6,0,1.4,0.3,2.2,0c1.7,0,4.4-0.6,6.7-2.8   c2.5-2.2,4.2-5.6,5-8.3c0.3-0.8,0.6-1.4,0.6-1.9c0.3-0.6,0.3-1.1,0.3-1.7c0.3-1.1,0.3-1.7,0.3-1.7s-0.3,0-0.8,0   c-0.6,0-1.4,0.3-2.2,0.6c-0.8,0.3-1.9,0.8-2.8,1.4c-0.6,0.3-1.1,0.8-1.7,1.1C54.6,67.4,54,68,53.5,68.5z"></path>
	<path class="st0" d="M46.2,86.6c-0.3,0.3-0.8,0.6-1.1,0.6c-0.3,0.3-0.8,0.6-1.1,0.6c-0.6,0.6-1.4,0.8-1.9,1.4   c-0.3,0.3-0.6,0.6-0.8,0.8c-0.3,0-0.3,0.3-0.6,0.3c-0.3,0-0.3,0.3-0.6,0.3c-0.6,0.6-1.1,1.1-1.7,1.4c-1.1,0.8-1.9,1.7-2.5,2.2   S35.1,95,35.1,95s0.3,0.3,0.8,0.6c0.6,0.3,1.4,0.6,2.2,0.8c0.8,0.3,2.2,0.6,3.3,0.6c1.4,0,2.8-0.3,4.4-1.1c3.6-0.8,6.7-3.6,8.3-6.4   c0.6-0.6,0.8-1.4,1.4-1.9c0.3-0.6,0.6-1.1,0.8-1.7c0.6-0.8,0.8-1.4,0.8-1.4s-0.3,0-0.8-0.3c-0.6,0-1.4,0-2.5,0   c-0.6,0-1.1,0-1.7,0.3c-0.6,0-1.1,0.3-1.9,0.3c-0.6,0.3-1.4,0.3-1.9,0.6C47.9,85.8,47.1,86.3,46.2,86.6z"></path>
	<path class="st0" d="M33.7,101.6c-1.7,0.3-3.6,0.8-5.3,1.4c-0.8,0.3-1.7,0.6-2.5,0.8c-0.3,0.3-0.8,0.3-1.1,0.6   c-0.3,0-0.8,0.3-1.1,0.3c-1.4,0.6-2.5,1.1-3.3,1.4c-0.3,0.3-0.8,0.3-1.1,0.3c-0.3,0-0.3,0.3-0.3,0.3s0.3,0.3,0.6,0.8   c0.3,0.6,1.1,1.1,1.9,1.7c0.8,0.6,1.9,1.4,3.3,1.7c0.8,0.3,1.4,0.3,2.2,0.6c0.8,0,1.7,0.3,2.8,0c0.8,0,1.9-0.3,3.1-0.6   c0.8-0.3,1.9-0.6,2.8-1.1c0.8-0.3,1.9-0.8,2.8-1.4c0.8-0.6,1.7-1.1,2.5-1.4c0.3,0,0.3-0.3,0.6-0.3c0.3,0,0.3-0.3,0.6-0.3   c0.3-0.3,0.6-0.6,0.8-0.8c0.6-0.6,1.1-0.8,1.4-1.4c1.1-0.3,1.4-0.8,1.4-0.8s-0.3-0.3-0.8-0.6s-1.4-0.6-2.5-0.8   c-0.6,0-1.1-0.3-1.7-0.3s-1.4-0.3-1.9-0.3c-0.8,0-1.4,0-2.2,0C35.4,101.4,34.6,101.6,33.7,101.6z"></path>
	<path class="st0" d="M16.8,111.9c-0.8-0.3-1.9-0.3-2.8-0.3c-0.8,0-1.9-0.3-2.8-0.3c-0.8,0-1.9,0-2.8,0s-1.7,0-2.5,0   c-1.7,0-3.1,0-3.9,0c-0.8,0-1.7,0-1.7,0s0,0.3,0.3,1.1c0.3,0.6,0.6,1.4,1.1,2.5c0.3,0.6,0.6,1.1,1.1,1.7c0.3,0.3,0.6,0.6,0.6,0.8   c0.3,0.3,0.6,0.6,0.8,0.8c0.6,0.6,1.4,1.1,1.9,1.4c0.8,0.6,1.7,0.8,2.8,1.1c1.1,0.3,1.9,0.6,3.1,0.6c1.1,0.3,2.2,0.3,3.3,0   c1.1,0,2.2-0.3,3.3-0.3c1.1-0.3,2.2-0.3,3.1-0.6c0.6,0,0.8-0.3,1.4-0.3c0.6-0.3,0.8-0.3,1.1-0.6c0.8-0.3,1.4-0.6,1.9-0.8   c1.1-0.6,1.7-0.8,1.7-0.8s-0.3-0.3-0.8-0.8c-0.6-0.6-1.1-1.1-2.2-1.7s-2.2-1.4-3.6-1.9C20.4,112.8,18.7,112.2,16.8,111.9z"></path>
	<path class="st0" d="M36.5,16c1.9,0.8,3.9,2.5,5,3.9c0.8,0.8,1.1,1.4,1.4,1.9c0.6,0.6,0.6,0.8,0.6,0.8s-0.8,0.3-2.2,0.6   c-1.4,0-3.3,0-5-0.8c-1.9-0.8-3.6-2.2-4.7-3.3c-0.3-0.3-0.6-0.6-0.8-0.8c-0.3-0.3-0.6-0.6-0.6-0.6c-0.6-0.6-0.8-0.8-0.8-0.8   s0.8-0.6,1.9-0.8c0.6-0.3,1.4-0.3,2.2-0.3C34.6,15.4,35.4,15.7,36.5,16z"></path>
	<path class="st0" d="M44.8,31.8c1.9,1.4,3.3,3.6,4.2,5.6c0.3,0.6,0.3,0.8,0.6,1.4c0.3,0.6,0.3,0.8,0.3,1.1c0.3,0.6,0.3,1.1,0.3,1.1   s-1.1,0-2.5-0.3c-0.8-0.3-1.7-0.3-2.5-0.8c-0.8-0.3-1.9-0.8-2.8-1.7c-1.7-1.4-3.1-3.3-4.2-5c-0.6-0.8-0.8-1.4-1.1-1.9   c-0.3-0.6-0.3-0.8-0.3-0.8s0.3,0,0.6-0.3c0.6,0,1.1-0.3,1.9-0.3c0.8,0,1.7,0,2.5,0.3C42.9,30.7,44,31.3,44.8,31.8z"></path>
	<path class="st0" d="M49,49.4c1.7,1.9,2.5,5,2.8,7.2c0,0.6,0,1.1,0.3,1.7c0,0.6,0,0.8,0,1.4c0,0.8,0,1.1,0,1.1s-0.3,0-0.8-0.3   c-0.6-0.3-1.1-0.6-1.9-0.8c-0.8-0.3-1.7-0.8-2.2-1.7c-0.8-0.6-1.7-1.4-2.2-2.5c-1.4-1.9-2.2-4.4-2.8-6.1c0-0.6-0.3-0.8-0.3-1.4   c0-0.3-0.3-0.8-0.3-1.1c-0.3-0.6-0.3-0.8-0.3-0.8s1.1,0,2.8,0.3c0.8,0.3,1.7,0.6,2.5,1.1C47.3,47.7,48.2,48.5,49,49.4z"></path>
	<path class="st0" d="M47.6,67.2c0.8,2.8,0.8,5.8,0.3,8.3c0,0.3,0,0.6-0.3,0.8c0,0.3-0.3,0.6-0.3,0.8c-0.3,0.6-0.3,0.8-0.6,1.4   c0,0.3-0.3,0.6-0.3,0.8c0,0.3,0,0.3,0,0.3s-0.3-0.3-0.6-0.6c-0.3-0.3-0.8-0.8-1.7-1.7c-1.1-1.4-2.5-3.3-3.3-5.8   c-0.6-2.5-0.6-5.3-0.6-7.2c0-0.6,0-1.1,0-1.4c0-0.6,0-0.8,0-1.1c0-0.6,0-1.1,0-1.1s0.3,0,0.8,0.3c0.6,0.3,1.1,0.6,1.9,0.8   c0.8,0.6,1.7,1.1,2.2,1.9c0.3,0.3,0.8,0.8,1.1,1.4C47.1,65.8,47.4,66.3,47.6,67.2z"></path>
	<path class="st0" d="M40.7,83.3c0,0.3,0,0.8,0,1.1c0,0.3,0,0.8-0.3,1.1c0,0.8-0.3,1.7-0.6,2.2c0,0.3-0.3,0.8-0.3,1.1   c0,0.3-0.3,0.3-0.3,0.6c0,0.3-0.3,0.3-0.3,0.6c-0.3,0.6-0.6,1.4-1.1,1.9c-0.8,1.1-1.4,2.2-1.9,2.8c-0.6,0.6-0.8,1.1-0.8,1.1   s0-0.6-0.3-0.8c-0.3-0.6-0.6-1.1-1.1-2.2c-0.3-0.8-0.8-1.9-0.8-3.1c-0.3-1.1-0.3-2.5-0.3-3.9c0-2.8,0.8-5.6,1.7-7.5   c0.3-0.6,0.3-1.1,0.6-1.4c0-0.8,0.3-1.1,0.3-1.4c0.3-0.6,0.6-1.1,0.6-1.1s0.3,0.3,0.8,0.6c0.6,0.3,1.1,0.8,1.7,1.7   c0.3,0.3,0.6,0.8,0.8,1.1c0.3,0.6,0.6,0.8,0.8,1.4c0.3,0.8,0.6,1.4,0.6,1.9C40.7,81.9,40.7,82.4,40.7,83.3z"></path>
	<path class="st0" d="M29.3,96.3c-0.6,1.7-1.4,3.1-2.2,4.4c-0.6,0.6-1.1,1.4-1.7,1.9c-0.3,0.3-0.6,0.6-0.8,0.8   c-0.3,0.3-0.6,0.6-0.8,0.8c-1.1,0.8-2.2,1.7-3.1,1.9c-0.3,0.3-0.8,0.3-0.8,0.6c-0.3,0-0.3,0.3-0.3,0.3s0-0.3-0.3-0.8   c0-0.6-0.3-1.4-0.3-2.5s0-2.2,0.3-3.6c0-0.6,0.3-1.4,0.3-1.9c0.3-0.6,0.3-1.4,0.6-1.9c1.1-2.8,2.8-5,4.2-7l0.3-0.3l0.3-0.3   c0.3-0.3,0.3-0.3,0.6-0.6c0.3-0.3,0.6-0.6,0.8-0.8c0.6-0.6,0.8-0.8,0.8-0.8s0.3,0.3,0.6,0.8c0.3,0.6,0.8,1.1,1.1,2.2   c0.3,0.6,0.3,1.1,0.6,1.7c0.3,0.6,0.3,1.1,0.3,1.9c0,0.6,0,1.4,0,1.9C29.6,95,29.6,95.5,29.3,96.3z"></path>
	<path class="st0" d="M32.6,4.3c2.5,1.9,3.6,4.4,4.4,6.7c0.3,0.3,0.3,0.8,0.6,1.1c0,0.6,0,0.8,0,1.1c0.3,0.6,0.3,1.1,0.3,1.1   s-0.3,0-0.8-0.3c-0.3,0-0.6-0.3-1.1-0.6c-0.3-0.3-0.8-0.6-1.1-0.8c-1.7-0.8-4.2-2.2-6.1-4.2c-2.2-1.7-3.6-3.6-5-5.3   c-0.3-0.3-0.6-0.8-0.8-1.1c-0.3-0.3-0.6-0.6-0.6-0.8c-0.3-0.6-0.6-0.8-0.6-0.8s0.3,0,0.8,0c0.3,0,0.6,0,1.1,0c0.6,0,0.8,0,1.4,0.3   c0.6,0,1.1,0.3,1.7,0.6c0.3,0,0.6,0.3,0.8,0.3c0.3,0,0.6,0.3,0.8,0.3c0.3,0.3,0.6,0.3,0.8,0.6c0.3,0.3,0.6,0.3,0.8,0.6   c0.3,0.3,0.6,0.3,0.8,0.6C32.1,3.8,32.3,4,32.6,4.3z"></path>
	<path class="st0" d="M14.3,104.7c-0.6,0.6-1.1,1.4-1.7,1.9c-0.6,0.6-1.4,1.1-2.2,1.7c-0.8,0.6-1.7,0.8-2.2,1.1   c-0.8,0.3-1.7,0.6-2.2,0.8c-1.4,0.3-2.8,0.6-3.9,0.6c-0.8,0-1.7,0-1.7,0s0-0.3,0.3-1.1c0.3-0.6,0.6-1.7,0.8-2.5   c0.3-0.6,0.6-1.1,0.8-1.7c0.3-0.3,0.3-0.6,0.6-0.8c0.3-0.3,0.3-0.6,0.6-0.8c0.3-0.6,0.8-1.1,1.1-1.7c0.6-0.6,0.8-1.1,1.4-1.7   c2.2-2.2,4.4-3.9,6.4-5c0-0.3,0.3-0.6,0.6-0.6c0.3-0.3,0.6-0.3,0.6-0.3c0.3-0.3,0.8-0.6,1.1-0.6c0.6-0.3,0.8-0.6,0.8-0.6   s0.3,0.3,0.3,1.1c0.3,0.6,0.3,1.4,0.6,2.5c0,1.1,0,2.2-0.3,3.6C15.9,101.9,15.4,103.3,14.3,104.7z"></path>
</g>
</svg>
